<svg xmlns="http://www.w3.org/2000/svg" viewBox="0 0 936.49 87.93"><defs><style>.cls-1,.cls-2{fill:#5fb030;}.cls-2{fill-rule:evenodd;}</style></defs><title>Tipografía verde y negro</title><g id="Capa_2" data-name="Capa 2"><g id="fondo_claro" data-name="fondo claro"><path d="M198.41,7.34q-6.32-5.26-19.71-5.27h-9.54q-13.39,0-19.71,5.27-6.69,5.76-6.69,18.74V63.8a25.24,25.24,0,0,0,2.85,12q6.32,12,23.55,12h9.54q13.39,0,19.71-5.27,6.69-5.75,6.69-18.74V26.08Q205.1,13.1,198.41,7.34Zm-6.07,57.05q0,6.24-2.67,8.57t-9.13,2.32H167.1q-6.59,0-9.32-2.39T155,64.15V25.48q0-6.36,2.73-8.75t9.32-2.39h13.42q6.58,0,9.2,2.39t2.61,8.75Z"/><path d="M262.46,51.39A15.7,15.7,0,0,0,274,46.31a16.23,16.23,0,0,0,5-11.69V19.94a17.15,17.15,0,0,0-7.31-14.56,18.35,18.35,0,0,0-11-3.3H216.81V87.73h12.51V14.44h30.08a2,2,0,0,0,.62.12q6.46,1.11,6.46,7.91v9.64q0,5.81-7,6.92H239.38Q232,39,230.31,45q-1.11,4.12.75,6.3l31.43,36.47H279L247.54,51.39Z"/><path d="M79.61,8q-5.45,5.94-5.45,15.11V67.13q0,11.5,8.18,16.89a19.81,19.81,0,0,0,10.9,3.67l37.34.09V75.43l-34.74-.09a9.14,9.14,0,0,1-9.17-9.18V23.45q0-9.05,9.17-9.05h34.81V2H94.23Q85.06,2,79.61,8Z"/><path d="M440.24,2.14H396V87.8h41.87a20.43,20.43,0,0,0,8.67-2.08q11.89-5.63,11.89-19.7V22a20.76,20.76,0,0,0-5-14.13Q448.53,2.14,440.24,2.14Zm-3,73.3H408.53V14.5h28.37q4.58,0,6.5,1.71a8.28,8.28,0,0,1,2.42,6.24c0,3,.12,35.58.12,42.58S443,75.44,437.26,75.44Z"/><path d="M681.31,1.84H643.53V87.79h12.55V56.23h26.47q10.69,0,17-5.59t6.28-16V22.35Q705.8,1.85,681.31,1.84Zm8.81,40.27q-2.49,1.72-7.6,1.72H656.09V14.25s25.6,0,27.68,0,5.75.74,6.86,1.84a9.35,9.35,0,0,1,2.5,5.4c0,1.8.12,12.07.12,14.12S691.79,41,690.13,42.11Z"/><path d="M844.58,7.56q-5-5.72-13.32-5.72H786.84V87.9H828.9a20.52,20.52,0,0,0,8.71-2.09Q849.56,80.16,849.56,66V21.76A20.86,20.86,0,0,0,844.58,7.56ZM837,65q0,10.45-8.71,10.45H799.41V14.26h28.5q4.6,0,6.53,1.72c1.29,1.15,2.55,3.25,2.55,7.13Z"/><path d="M625.71,1.84A17.69,17.69,0,0,0,618.35,0Q610,0,606.76,10.81L587.55,73.86l-18.41-63Q566,0,557.6,0a17.55,17.55,0,0,0-7.32,1.84q-6,2.71-6,12.42V87.79h12.57V14.14l19.48,62.72q1.62,5.29,3.86,7.62,2.74,3,7.72,3t7.72-3q2.24-2.33,3.86-7.62L619,14.14V87.79h12.57V14.26Q631.57,4.55,625.71,1.84Z"/><path d="M724.72,6.39q-7,5.16-7,16.94V64.7q0,23.08,23.12,23.08h34.05V75.39h-30.7a37.36,37.36,0,0,1-7.71-.49,8.5,8.5,0,0,1-5.59-4.81,5.42,5.42,0,0,1-.62-2.47V51.05h44.62V38.65H730.31v-15a10.52,10.52,0,0,1,2.24-6.51,6.88,6.88,0,0,1,5.72-2.95h36.66V1.84H743.11Q730.81,1.84,724.72,6.39Z"/><path d="M298,6.39q-7,5.16-7,16.94V64.7q0,23.08,23.12,23.08h34.05V75.39h-30.7a37.36,37.36,0,0,1-7.71-.49,8.5,8.5,0,0,1-5.59-4.81,5.42,5.42,0,0,1-.62-2.47V51.05h44.62V38.65H303.55v-15a10.52,10.52,0,0,1,2.24-6.51,6.88,6.88,0,0,1,5.72-2.95h36.66V1.84H316.35Q304,1.84,298,6.39Z"/><path d="M519.94,65.93q0,5.16-2.19,7.38t-7.3,2.21H492.59q-9.62,0-9.62-10.33V1.88H470.41V66.79q0,14.51,12.57,19.55a20.65,20.65,0,0,0,7.72,1.6h21.65a19.45,19.45,0,0,0,7.47-1.6Q532.51,81,532.51,66.79V1.88H519.94Z"/><rect class="cls-1" x="861.52" y="75.28" width="74.96" height="12.62" rx="2.55" ry="2.55"/><path class="cls-2" d="M50.23,42.76v5.47a6.59,6.59,0,0,1-2.82,5.34L3.31,84.23A2.07,2.07,0,0,1,0,82.72V75.28a8,8,0,0,1,3.42-6.49L33.16,48.36a3.67,3.67,0,0,0,0-5.94L3.32,21.17A8,8,0,0,1,0,14.76V7.16A2.07,2.07,0,0,1,3.33,5.66L47.5,37.47A6.58,6.58,0,0,1,50.23,42.76Z"/></g></g></svg>